<mxfile host="app.diagrams.net" modified="2023-05-24T08:06:18.399Z" agent="Mozilla/5.0 (Windows NT 10.0; Win64; x64) AppleWebKit/537.36 (KHTML, like Gecko) Chrome/113.0.0.0 Safari/537.36" version="21.3.2" etag="s_Uybqhcqs799d7SD-cC" type="github">
  <diagram name="第 1 页" id="yXRS408LSO9wbGec5G7c">
    <mxGraphModel>
      <root>
        <mxCell id="0" />
        <mxCell id="1" parent="0" />
      </root>
    </mxGraphModel>
  </diagram>
</mxfile>
